<svg xmlns="http://www.w3.org/2000/svg" width="43.215" height="36" viewBox="0 0 43.215 36">
  <g id="Grupo_2467" data-name="Grupo 2467" transform="translate(-2169.855 151.115)">
    <path id="Caminho_496" data-name="Caminho 496" d="M86.633,13.785c.4,2.918,9.632,19.673,9.632,19.673a4.261,4.261,0,0,0,2.293,2.291,8.459,8.459,0,0,0,4.761-.229c1.6-.456,3.1-3.147,3.1-3.147l3.611-14.47s-.111-1.829,2.923-1.829c1.934,0,2.125,2.288,2.125,2.288L112.316,29.8s6.079-2.4,5.966-3.658,3.316-12.754,2.235-12.813-13.708,0-13.708,0l-3.2,11.9a3.176,3.176,0,0,1-3.385,2c-2.3-.312-1.658-2.918-1.658-2.918l3.675-13.724s.533-1.382,1.382-1.382h21.091a68.546,68.546,0,0,0-4.128-7.322A4.211,4.211,0,0,0,117.2,0h-.185a3.006,3.006,0,0,0-.553.058s-25.3,6-27.078,7.322a6.644,6.644,0,0,0-2.293,2.744s-.572.489-.566,2.238a10.191,10.191,0,0,0,.108,1.423" transform="translate(2083.333 -151.114)" fill="#096cb5" fill-rule="evenodd"/>
    <path id="Caminho_497" data-name="Caminho 497" d="M111.837,7.339c0,.456-2.763,12.351-2.763,12.351s5.336-2.8,5.966-3.658a2.175,2.175,0,0,0,.442-1.125v-.423a5.99,5.99,0,0,0-.442-1.658c-.572-1.489-3.211-5.949-3.211-5.49" transform="translate(2097.589 -146.498)" fill="#1d1d1b" fill-rule="evenodd"/>
  </g>
</svg>
